<?xml version="1.0" encoding="utf-8"?>
<svg xmlns="http://www.w3.org/2000/svg" viewBox="0 0 540 169.46">
    <defs>
        <style>.cls-1{fill:#fff;}</style>
    </defs>
    <g id="Layer_2" data-name="Layer 2">
        <g id="Layer_1-2" data-name="Layer 1">
            <path class="cls-1" d="M432.39,0c2.2.37,4.43.61,6.59,1.14,8.69,2.11,15.45,7.12,20.81,14.11,5.69,7.43,8.85,16,10.75,25,2.28,10.9,2.36,21.9,1.51,32.94a112.61,112.61,0,0,1-9.15,36.64C460,116.6,456.38,123,451,128.17a37.7,37.7,0,0,1-5.54,4.17,7.71,7.71,0,0,1-3,.94c-2.63.42-4.36-1.06-4.43-3.73-.15-5.52,1.87-10.33,4.95-14.78s7.62-7.09,12.85-8.65c.42.66.41,1.06-.36,1.43-8.18,3.86-11.69,10.82-12.73,19.35-.27,2.24,1,3.18,3.2,2.42a14,14,0,0,0,5.52-4.14c3.69-4,6.08-8.83,8.17-13.8a117.46,117.46,0,0,0,7.47-28,171.47,171.47,0,0,0,1.68-31.78C468.46,42.08,467,32.76,463,24c-3.31-7.27-8.08-13.26-15.19-17.17-13-7.15-30.48-5.47-42.07,4a5.81,5.81,0,0,1-1.53.64,5.07,5.07,0,0,1,.74-1.59A34.68,34.68,0,0,1,426.2.23,7.89,7.89,0,0,0,427.25,0Z"/>
            <path class="cls-1" d="M0,132.74c1.56-3.16,3.14-6.32,4.66-9.5,7.55-15.72,15.67-31.12,25.65-45.46C35,71,40.11,64.65,46.43,59.34c3.61-3,7.44-5.71,12.12-6.85a16.46,16.46,0,0,1,7.86-.18,5.35,5.35,0,0,1,4.15,3.89,13.44,13.44,0,0,1,.4,6.63c-.07.35-.5.62-.76.92a5.11,5.11,0,0,1-.41-1c-.16-1-.14-2-.38-3-1-3.8-4.13-5.89-8.46-5.67-5.22.27-9.39,2.69-13,6.24A79.58,79.58,0,0,0,35.22,76.8c-6.6,11.08-12.92,22.32-19.36,33.5a.8.8,0,0,0-.07.65c.65-.61,1.28-1.26,2-1.84,1.21-1,2.45-2,3.7-3a10.14,10.14,0,0,1,1.68-1c3.13-1.5,4.95-.26,4.68,3.19a24.53,24.53,0,0,1-2.91,9.25,35.86,35.86,0,0,1-9.67,12.28c-2.2,1.74-4.61,3-7.54,2.4a6.14,6.14,0,0,1-2.35-1.15c-1.15-.88-1.6-.91-2.51.23A7.93,7.93,0,0,0,1.75,133c-.42.89-1,1-1.75.53ZM22.48,111l-.59-2c-.77.27-1.56.53-2.32.84a2.9,2.9,0,0,0-.68.5A38.17,38.17,0,0,0,9.34,122,15.7,15.7,0,0,0,8,126.22a2.85,2.85,0,0,0,2.77,3.42A4.82,4.82,0,0,0,14.63,128C19.34,123.42,21.62,117.72,22.48,111Z"/>
            <path class="cls-1" d="M264.46,59.48c-1.53-4.41-5.65-5-9.42-4.39-4.22.63-7.19,3.29-9.9,6.29-5.3,5.85-9.57,12.46-13.8,19.08a364,364,0,0,0-19,32.85,77.43,77.43,0,0,0-4.11,10.29c-.44,1.34-.11,3,0,4.46.06,1.17.86,1.67,2,1.79a10.66,10.66,0,0,0,5.48-1A39.49,39.49,0,0,0,226,121.72a2.3,2.3,0,0,0,.52-.81c4.64-11,10.88-21,17.36-30.95a233.62,233.62,0,0,1,18.33-25c4-4.59,8.32-8.72,14-11.25a17.06,17.06,0,0,1,10.86-1.1,7.73,7.73,0,0,1,1.39.44,3.5,3.5,0,0,1,2.45,3.3c-.11,1.23-1.76,2.87-3.29,3.19a6.12,6.12,0,0,0-5.49-4.5,12.7,12.7,0,0,0-8.88,2,35.05,35.05,0,0,0-8.08,8.09c-6.74,8.62-12.43,17.94-18,27.31-4.95,8.27-9.9,16.56-13.77,25.42a39,39,0,0,0-2.16,6.58,11.57,11.57,0,0,0,.11,3.75,1.9,1.9,0,0,0,1.93,1.71,11.11,11.11,0,0,0,6.25-1.3c6-3,10.78-7.41,15-12.48a7.78,7.78,0,0,1,1-1.09c.21-.16.73-.27.84-.15a1.37,1.37,0,0,1,.29.94,1.43,1.43,0,0,1-.4.74c-4.48,5.16-9.24,10-15.37,13.25a19.27,19.27,0,0,1-8.21,2.57,13.75,13.75,0,0,1-3.39-.2,4.9,4.9,0,0,1-4.09-4.95c0-.76,0-1.54,0-2.47-.35.25-.63.43-.89.64-3.29,2.64-6.77,5-10.86,6.2a18.56,18.56,0,0,1-6.24.71c-4.22-.28-5.47-3.19-5.14-6.8.06-.6.22-1.19.4-2.1l-1.15,1c-3.23,2.71-6.45,5.46-10.59,6.63a21.08,21.08,0,0,1-5.65.75,4.2,4.2,0,0,1-4.24-5.63,21.51,21.51,0,0,1,1.9-4.87c2.4-4.3,4.94-8.52,7.44-12.76a6.31,6.31,0,0,1,4.22-2.67c1-.26,1.49.26,1.15,1.28a5.8,5.8,0,0,1-.62,1.18,81.83,81.83,0,0,0-7.81,15,15.29,15.29,0,0,0-.86,3.9,1.85,1.85,0,0,0,2.14,2.2,12.67,12.67,0,0,0,4.23-1,39.54,39.54,0,0,0,10.84-8,2.46,2.46,0,0,0,.47-.7c5.29-11.82,12.16-22.74,19.36-33.46,5.57-8.29,11.27-16.49,18.13-23.79,3.71-4,7.87-7.33,13-9.25a17.06,17.06,0,0,1,9.75-.5,6.82,6.82,0,0,1,1.37.5,3.23,3.23,0,0,1,2.14,3.35A4.26,4.26,0,0,1,264.46,59.48Z"/>
            <path class="cls-1" d="M71.32,112.12c2.58-1.74,5.15-3.61,7.85-5.27a16.53,16.53,0,0,1,4-1.5c1.29-.38,2.36.54,3.51.8a28.23,28.23,0,0,0,6.51.17c.21,0,.41-.57.6-.88,3-4.82,5.9-9.66,8.89-14.46a3.54,3.54,0,0,1,1.51-1.28c2-.89,4-1.7,6.12-2.45.42-.15,1.3,0,1.43.21.37.7-.31.94-.88,1.12a7,7,0,0,0-3.94,3.09c-2.88,4.63-5.8,9.24-8.7,13.86a10,10,0,0,0-.42.92c.54,0,1,.08,1.39.08H110.4a2.4,2.4,0,0,1,1,0,4.7,4.7,0,0,1,1,.83c-.32.21-.63.59-1,.62-1.42.12-2.85.12-4.28.19-3.25.16-6.5.35-9.76.48a1.59,1.59,0,0,0-1.61,1c-1.83,4-3.79,7.91-5.49,11.95a12.57,12.57,0,0,0-.68,4.55c0,2.36,1.23,3.64,3.59,3.42a19,19,0,0,0,4.91-1.3c1.43-.54,2.72-1.46,4.12-2.11a1.5,1.5,0,0,1,1.35.09c.54.53,0,.91-.47,1.21-4,2.56-8.26,4.59-13.14,4.86a12.68,12.68,0,0,1-2,0c-3.41-.38-5.32-3-4.32-6.64a56.8,56.8,0,0,1,3.48-8.81c1.22-2.6,2.77-5.05,4.29-7.78-1,0-1.87.09-2.73.15a7.69,7.69,0,0,1-1.34.13,2.36,2.36,0,0,0-2.88,1.7c-.27.76-.84.78-1.41.17-1.92-2-3.55-2.36-6.09-1.12a20.61,20.61,0,0,0-8,6.91c-2.75,4-5.24,8.24-7.84,12.37-.45.72-.88,1.46-1.34,2.18a1.08,1.08,0,0,1-1.76.32c-.87-.67-1.81-1.35-1.24-3-.91.65-1.61,1.16-2.32,1.64-2.45,1.64-4.94,3.18-7.92,3.67a7.25,7.25,0,0,1-5-.64,3.29,3.29,0,0,1-1.9-4,2.26,2.26,0,0,0,0-1.19c-.8.84-1.55,1.73-2.42,2.49-2.1,1.81-4.46,3-7.35,2.56a2.92,2.92,0,0,1-2.76-3,14.1,14.1,0,0,1,1-5.32c3-6.17,6.28-12.22,9.46-18.31.45-.86,1-1.69,1.48-2.53s1.17-1.09,1.85-.58a9.31,9.31,0,0,1,2.4,2.49c.24.4-.21,1.37-.56,2-2.21,3.8-4.6,7.5-6.7,11.35-1.4,2.56-2.46,5.31-3.6,8a5.61,5.61,0,0,0-.38,2.15c0,1.36.89,1.94,2,1.19a17,17,0,0,0,4.35-3.66c2.32-3.12,4.37-6.46,6.38-9.79C47,113.86,49,110.24,51,106.67a6.87,6.87,0,0,1,.68-1c.78-.91,1.44-.87,2.2.08a5.29,5.29,0,0,1,.18,6.27c-2.49,3.62-5,7.2-7.51,10.84a15.58,15.58,0,0,0-2.69,6.49c-.33,2.19.81,3.43,3,3A10.12,10.12,0,0,0,50.67,131c2.88-2,5.61-4.15,8.39-6.28a3.44,3.44,0,0,0,.81-1.06c3.36-5.81,6.69-11.64,10.07-17.44a2.12,2.12,0,0,1,1.3-1,2.55,2.55,0,0,1,2.14,2,4.32,4.32,0,0,1-.42,1.86C72.47,110.19,71.84,111.19,71.32,112.12Z"/>
            <path class="cls-1" d="M324.66,105.33a6.81,6.81,0,0,0,.28.82c1.27,2.32.95,4.57-.12,6.88a42.15,42.15,0,0,1-6.68,9.87c-.35.4-.7.78-1.13,1.25a9.72,9.72,0,0,0,7.45,3.38,17.46,17.46,0,0,0,8.64-1.78c.61-.32,1.26-.52,1.49.26.09.3-.44,1-.84,1.18-6.4,2.56-12.78,3-19.11-.3a1.59,1.59,0,0,0-1.33.23c-8.2,5.66-17.12,7.49-26.82,5a15.3,15.3,0,0,1-6.8-3.71,14.11,14.11,0,0,1-.26-20.24c4.12-4.25,9.32-6.43,14.91-7.89a39,39,0,0,0,4-1.11l-1.42-.41c-4.65-1.32-6.33-4.76-4.47-9.23a14.73,14.73,0,0,1,5.41-6.33,19.54,19.54,0,0,1,16.32-3.44,9.29,9.29,0,0,1,3.77,1.87,3.6,3.6,0,0,1-1.38,6.23c-.79.27-1.42.06-1.42-.76,0-4-2.86-4.86-5.94-5.32a12.44,12.44,0,0,0-9.94,2.3c-3.15,2.44-4.45,8.56-1.69,11.51a9.59,9.59,0,0,0,5.74,2.69c.32.06.7,0,1,.15a12.06,12.06,0,0,1,1.29,1c-.48.42-.9,1.13-1.43,1.21-1.44.24-2.92.15-4.38.3a25.6,25.6,0,0,0-12.11,4.16c-6.42,4.43-7.45,11.94-5.42,17.68a10.7,10.7,0,0,0,7.75,7,26.32,26.32,0,0,0,21.88-3.42c.37-.24.72-.53,1.14-.84a11.06,11.06,0,0,1-2.32-11.83c1.48-4.2,4.73-6.9,8.77-9a3,3,0,0,0-.76-.29c-4.13-.32-8.23-.33-12.13,1.38a7.61,7.61,0,0,0-4.85,8.07,8.32,8.32,0,0,0,.61,2.09c.29.82.14,1.28-.8,1.48-2.89.61-4.2-.6-3.72-3.57.53-3.23,2.62-5.47,5-7.42a25.76,25.76,0,0,1,18.49-5.59c4.63.29,9.26.61,13.89.81a10.8,10.8,0,0,0,3.37-.5c3.26-.94,4.83-4,4-7.45a5.1,5.1,0,0,1-.32-1.17,3.69,3.69,0,0,1,.36-1.11c.36.23,1,.44,1,.71a18.86,18.86,0,0,1,.28,5.17c-.8,4.56-4.26,7.52-9.27,7.94-2.95.24-5.94,0-8.9,0Zm-8.61,17.46a1.86,1.86,0,0,0,.47-.35c1.73-2.4,3.63-4.7,5.11-7.25a13.49,13.49,0,0,0,1.67-9c-.15-1-.69-1.45-1.59-.94a21.3,21.3,0,0,0-4.43,2.9C313.48,112,313,118.89,316.05,122.79Z"/>
            <path class="cls-1" d="M425.94,112.4a71.34,71.34,0,0,1,6-4.37,38.1,38.1,0,0,1,6.21-2.7,3.55,3.55,0,0,1,2.24.27c1.43.56,1.58,1.39.7,2.64-.61.86-1.17,1.76-1.7,2.67s-1,1.1-1.69.2a3.81,3.81,0,0,0-4.69-1.36,20.87,20.87,0,0,0-4.92,2.86c-4,3.14-6.62,7.47-9.21,11.77-1.36,2.26-2.68,4.55-4,6.84-.42.73-.87,1.33-1.83.9-1.12-.52-1.9-1.72-1.55-2.59.45-1.09,1-2.11,1.58-3.16a3.7,3.7,0,0,0,.53-1.46c-1.18,1-2.35,2.08-3.56,3.09a29.09,29.09,0,0,1-8.89,5.51,15.84,15.84,0,0,1-4.88.85,3.66,3.66,0,0,1-4-4,29.5,29.5,0,0,1,1-5.12,7.6,7.6,0,0,0,.39-1.61l-.83.88c-2.64,2.8-5.41,5.46-8.91,7.15a9.4,9.4,0,0,1-3.39.8,2.17,2.17,0,0,1-2.49-2.48,33.68,33.68,0,0,1,.83-4.53,3.91,3.91,0,0,0,.2-1.28l-1.43,1.19c-3.15,2.61-6.41,5.1-10.39,6.28a20.16,20.16,0,0,1-5.88.8c-4.25-.05-6.45-2.86-5.78-7.07a23,23,0,0,1,4-9.2,28.76,28.76,0,0,1,11.56-10.25,7.22,7.22,0,0,1,4.61-.81c1.36.25,2.58.73,3.05,2.11a4.47,4.47,0,0,1-.64,4.51,13.08,13.08,0,0,1-2.21,1.91c-.25.18-.69.11-1.11.16a2,2,0,0,1,0-.54c.49-1.43.57-2.82-.62-4s-2.72-1-4.15-.57a10.52,10.52,0,0,0-5.68,4.59,20.83,20.83,0,0,0-3.68,12.07c0,3.57,2.46,5.63,5.87,4.53a30.64,30.64,0,0,0,7-3.41,41.73,41.73,0,0,0,10-9.26,38.16,38.16,0,0,1,11.95-10.12,16.51,16.51,0,0,1,6.86-2,2.3,2.3,0,0,0,2.09-1.14c.87-1.46,4.3-2.54,5.57-1.93-.64,1-1.29,1.93-2,3a17.08,17.08,0,0,1,2.71.39c.44.14,1.08.69,1.07,1,0,.86-.79.56-1.32.47-3.22-.58-3.31-.63-4.78,2.25-2.67,5.21-5.29,10.45-7.79,15.74a15.94,15.94,0,0,0-1.15,4.71c-.2,1.74.54,2.52,2.26,2.34a12.3,12.3,0,0,0,3.95-1.1c3.7-1.74,6.67-4.49,9.67-7.19a32.92,32.92,0,0,0,7.41-9.46c1.35-2.6,2.89-5.1,4.37-7.62.39-.67.5-1.81,1.76-1.36,1.49.54,2.25,1.74,1.86,3a9.91,9.91,0,0,1-.78,1.65C427,110.67,426.52,111.4,425.94,112.4Zm-22.84-5.83a10,10,0,0,0-5.57,1.75,36.07,36.07,0,0,0-14,19.41,7.67,7.67,0,0,0-.14,1.74l.37.29c1.17-.74,2.41-1.4,3.52-2.22A43.1,43.1,0,0,0,399,113.81C400.36,111.45,401.68,109.09,403.1,106.57Z"/>
            <path class="cls-1" d="M514.67,129.81c-2.57,1-5.27,2.29-8.07,3.19a10.84,10.84,0,0,1-4.22.18c-2.11-.19-3-1.37-2.55-3.43a15.17,15.17,0,0,1,1.27-3.8c2.35-4.46,4.83-8.85,7.23-13.29.65-1.19,1.18-2.44,1.77-3.66l-.29-.19a14.25,14.25,0,0,0-1.59,1.07c-3.27,2.81-6.7,5.47-9.7,8.55-2,2-3.35,4.67-4.92,7.08-1.22,1.87-2.3,3.84-3.51,5.72-.25.39-.82.86-1.18.81s-.8-.61-1-1a4,4,0,0,1,.55-4.75,5.45,5.45,0,0,0,1.1-1.83l-1.15.89c-4.16,3.28-8.61,6-13.92,7a17,17,0,0,1-4.61.17c-3.15-.32-4.69-2.35-4.53-5.52.23-4.57,2.14-8.48,4.68-12.14a27.37,27.37,0,0,1,8.82-8.31,9.6,9.6,0,0,1,6.31-1.44,2.42,2.42,0,0,1,2.22,3.13,10.05,10.05,0,0,1-4.81,6.63,16.67,16.67,0,0,1-8.88,2.69c-.78,0-1.26.22-1.42,1a48.8,48.8,0,0,0-1.4,6.88c-.2,3.27,1.71,4.93,4.94,4.32a24.82,24.82,0,0,0,6.42-2.17,34.9,34.9,0,0,0,11.54-9.65,26.5,26.5,0,0,0,2.7-5.18c.95-2,1.84-4,2.75-6,.58-1.29,1.38-1.67,2.48-1.19a2.08,2.08,0,0,1,1.11,2.92c-1,1.83-2,3.61-3.07,5.42a4.62,4.62,0,0,0-.58,1.54c.27-.2.54-.39.8-.6,3.66-2.92,7.3-5.87,11-8.77a19,19,0,0,1,2.59-1.6c.69-.39,1.53-.5,2,.25a4,4,0,0,1,.45,2.11c0,.46-.47.92-.77,1.36-3.43,5.16-6.8,10.35-9.19,16.09a22.47,22.47,0,0,0-1.29,4.18c-.37,1.89.4,2.82,2.28,2.59a9.25,9.25,0,0,0,4-1.28c3.27-2.24,6.47-4.61,9.5-7.15A31.48,31.48,0,0,0,525,117.5a14.34,14.34,0,0,0,2.08-3.92c1.29-3.73,6.35-7.84,10.27-8.1a4.15,4.15,0,0,1,1.79.25,1.14,1.14,0,0,1,.65,1.78c-.38.71-.67,1.48-1,2.2s-.89,1.05-1.39.12c-.84-1.58-4.05-1.46-6-.06-1.41,1-1.56,2.6-.4,4.43,1,1.52,2,3,2.93,4.52a8.27,8.27,0,0,1-.57,9.17c-3.33,4.29-10.2,6.28-15.25,4.25A18.56,18.56,0,0,1,514.67,129.81Zm12.59-12.38c-.18.09-.27.11-.32.17-2.79,3-5.58,5.9-8.33,8.9a1.3,1.3,0,0,0-.07,1.13c1.29,2.7,3.86,3.88,7.16,3.35s5.3-2.59,5.11-5.72a9.61,9.61,0,0,0-1-3.46C529.1,120.3,528.15,118.92,527.26,117.43Zm-53.83-1.68a8.34,8.34,0,0,0,9.56-7c.22-1.63-.49-2.24-2.05-1.76a3.45,3.45,0,0,0-1,.46C477,109.55,475.21,112.54,473.43,115.75Z"/>
            <path class="cls-1" d="M145.06,110.91c2.08-1.71,4-3.39,6-4.86a10.37,10.37,0,0,1,3.43-1.46,1.89,1.89,0,0,1,2.56,1.72,16.52,16.52,0,0,1-.44,5.4A36,36,0,0,1,144.55,130c-2.12,1.7-4.5,2.89-7.33,2.31a6.49,6.49,0,0,1-2.45-1.19c-1.11-.83-1.56-.88-2.43.2-.46.57-.77,1.26-1.27,1.78a3.8,3.8,0,0,1-1.23.59c0-.43-.22-.94-.06-1.28q2.88-6.14,5.84-12.22a319.88,319.88,0,0,1,22.48-40c5.21-7.72,10.87-15.07,18.07-21.08,3.53-2.94,7.29-5.51,11.84-6.61a16.5,16.5,0,0,1,7.87-.16A5.31,5.31,0,0,1,200,56.11a13.41,13.41,0,0,1,.43,6.74c-.07.34-.43.61-.65.92a4.54,4.54,0,0,1-.51-1.07c-.17-1-.14-2-.39-3-1-3.81-4.22-5.9-8.6-5.64-5.16.31-9.29,2.72-12.89,6.24a88.67,88.67,0,0,0-14,18.48c-6.17,10.39-12,20.95-18.06,31.44A6,6,0,0,0,145.06,110.91Zm6.84,0-.57-1.91c-.74.26-1.49.49-2.22.78a3.29,3.29,0,0,0-.78.58,38.49,38.49,0,0,0-9.56,11.6,17.7,17.7,0,0,0-1.34,3.89,2.69,2.69,0,0,0,.95,3.06,3.24,3.24,0,0,0,3.56.42,10.39,10.39,0,0,0,2.93-2.14A27.63,27.63,0,0,0,151.9,110.93Z"/>
            <path class="cls-1" d="M169.31,112.32c.54-.45,1.05-1,1.64-1.36,2.4-1.6,4.77-3.25,7.25-4.71a6.12,6.12,0,0,1,4.69-.88c1.89.47,2.26,1.49,1.17,3-.61.87-1.14,1.78-1.67,2.7s-.9.82-1.51.14c-1.71-1.89-3.2-2.27-5.56-1.28a19,19,0,0,0-7.8,6.33c-2.37,3.19-4.44,6.61-6.6,10-1,1.61-2,3.28-2.93,4.94-.41.71-.85,1.35-1.81.95a2.46,2.46,0,0,1-1.6-2.57,9.66,9.66,0,0,1,.79-1.77q6.23-10.86,12.5-21.68a1.79,1.79,0,0,1,1.34-.86,2.33,2.33,0,0,1,2,2.25,11,11,0,0,1-1,2.7,21.45,21.45,0,0,1-1.11,2Z"/>
            <path class="cls-1" d="M491.65,160.73a9.05,9.05,0,0,1,2.21-6.53,7.45,7.45,0,0,1,7.93-2.09,6.94,6.94,0,0,1,5.16,6,14.19,14.19,0,0,1-.07,4.95c-.83,4.24-4.12,6.59-8.42,6.27-3.64-.27-6.48-3.36-6.8-7.42C491.62,161.55,491.65,161.14,491.65,160.73Zm12.34-4a7.37,7.37,0,0,0-.34-.69,5,5,0,0,0-8.69.21,8.54,8.54,0,0,0-.23,8.19c1.81,3.71,7,4.15,9,.53.12-.24.23-.48.34-.72A9.71,9.71,0,0,0,504,156.75Z"/>
            <path class="cls-1" d="M431.32,151.82a7.07,7.07,0,0,1,7.08,5.1A11,11,0,0,1,438,165a7.65,7.65,0,0,1-14.58-3.13A14.51,14.51,0,0,1,424,157,7.17,7.17,0,0,1,431.32,151.82Zm5.27,8.82a8,8,0,0,0-1.55-5.16,4.91,4.91,0,0,0-7.74-.14c-2.21,2.63-2.24,7.71-.07,10.38a4.92,4.92,0,0,0,8-.34A8,8,0,0,0,436.59,160.64Z"/>
            <path class="cls-1" d="M521.19,169c-2.36.26-2.36.26-2.87-1.89-.15-.63-.31-1.26-.45-1.9-.72-3.14-2.06-4-5.55-3.32v7.16h-2.08c0-.39-.08-.78-.08-1.16,0-4.81,0-9.61,0-14.41,0-1,.27-1.44,1.28-1.42a45.11,45.11,0,0,1,5.46.11,4.09,4.09,0,0,1,3.7,3.67,4.43,4.43,0,0,1-2.35,4.68l-.63.37C520.55,162.9,519.91,166.34,521.19,169Zm-8.86-8.88a28.31,28.31,0,0,0,3.84-.36,3,3,0,0,0,2.25-3.21,2.84,2.84,0,0,0-2.57-2.8,14,14,0,0,0-2.9,0,.85.85,0,0,0-.59.56C512.32,156.18,512.33,158,512.33,160.15Z"/>
            <path class="cls-1" d="M420.68,152.28c-.3.9-.47,1.42-.58,1.73a35.09,35.09,0,0,0-4.2-.31,2.36,2.36,0,0,0-2.31,2,2.51,2.51,0,0,0,1.47,2.82c1,.51,2,.91,3,1.38q4,1.91,3.1,5.67a4.25,4.25,0,0,1-3.64,3.49,15.22,15.22,0,0,1-4.81-.11c-1.85-.33-1.84-.51-1.22-2.1a32,32,0,0,0,4.77.59,2.67,2.67,0,0,0,2.67-3.59,4.66,4.66,0,0,0-1.8-2,22.53,22.53,0,0,0-2.77-1.27c-2.37-1.18-3.38-3-2.91-5.19a4.81,4.81,0,0,1,4.94-3.57C417.75,151.86,419.13,152.12,420.68,152.28Z"/>
            <path class="cls-1" d="M471.82,152.6l-.51,1.59c-3.44-1-6.74-1.13-8.92,2.14a7.45,7.45,0,0,0,0,8.54c2.19,3.34,5.56,3,9,2.11l.42,1.48c-3.11,1.87-8.5,1-10.87-1.66-2.61-3-2.69-8.45-.29-11.74C463.18,151.52,468.78,151.12,471.82,152.6Z"/>
            <path class="cls-1" d="M523.35,166.88a42,42,0,0,0,4.82.58,2.76,2.76,0,0,0,2.79-2.3,2.83,2.83,0,0,0-1.61-3.13c-1.22-.66-2.54-1.12-3.74-1.8a4.08,4.08,0,0,1-2.14-5,5.33,5.33,0,0,1,1.55-2.25c1.78-1.5,5.34-1.56,7.47-.21l-.58,1.49a23.68,23.68,0,0,0-2.44-.58,6,6,0,0,0-1.93.11,2.42,2.42,0,0,0-2,2,2.34,2.34,0,0,0,1.2,2.6c1.23.7,2.58,1.2,3.83,1.88,2.31,1.25,3.27,3.42,2.37,5.74a5.73,5.73,0,0,1-1.9,2.43c-2,1.46-5.85,1.29-8.07-.2Z"/>
            <path class="cls-1" d="M491.3,152.13v1.79h-5.15v15.15H484V153.92h-3.74c-1.68,0-1.7,0-1.37-1.79Z"/>
            <path class="cls-1" d="M441.88,152.13H444v15.12h7.21V169h-9.31Z"/>
            <path class="cls-1" d="M453.84,152.13H456v16.94h-2.13Z"/>
            <path class="cls-1" d="M474.64,152.14h2v16.92h-2Z"/>
            <path class="cls-1" d="M203.83,89.59A5.05,5.05,0,0,1,199.94,94a1.71,1.71,0,0,1-2.21-1.86c0-2.36,1.89-4.55,4-4.62C203.2,87.5,203.86,88.15,203.83,89.59Z"/>
        </g>
    </g>
</svg>